<svg xmlns="http://www.w3.org/2000/svg" version="1.1" xmlns:xlink="http://www.w3.org/1999/xlink" xmlns:svgjs="http://svgjs.dev/svgjs" width="100%" height="100%" viewBox="0 0 1000 600"><rect width="1000" height="600" x="0" y="0" fill="#00ffaa"/><g><rect width="333.3333333333333" height="333.3333333333333" rx="13.333333333333334" ry="13.333333333333334" y="315.98883489680907" fill="#336699" transform="matrix(0.42550783744021575,0,0,0.42550783744021575,0,94.626295835953)" x="293.7666320800781"/><path d="M377.1902602666832 427.9562494509131L377.1902602666832 427.9562494509131L377.1902602666832 537.3547427383284Q377.1902602666832 543.7899482258234 378.61662024587025 547.1402356187975Q380.04298022505725 550.4905230117718 384.22254667569837 551.5520002055854Q388.4021131263395 552.6466485617057 396.2968497553282 552.6466485617057L396.2968497553282 552.6466485617057L422.3362121660683 552.6466485617057Q436.16858684795193 552.6466485617057 444.2955216130874 543.9226328750501Q452.4224563782228 535.1986171883946 454.81078006430346 521.1008732080575L454.81078006430346 521.1008732080575Q454.81078006430346 520.4042787996173 456.13762655657047 520.5037922865373Q457.43130188653083 520.636476935764 457.43130188653083 521.3662425065108L457.43130188653083 521.3662425065108Q456.7347074780906 527.8014479940059 456.0049419073438 536.9898599529549Q455.2751763365969 546.178271911904 455.2751763365969 554.0730085408927L455.2751763365969 554.0730085408927Q455.2751763365969 557.6554940700137 451.69269080747597 557.6554940700137L451.69269080747597 557.6554940700137L341.36540497547384 557.6554940700137Q340.9010087031804 557.6554940700137 340.9010087031804 556.2291340908266Q340.9010087031804 554.8027741116396 341.36540497547384 554.8027741116396L341.36540497547384 554.8027741116396Q349.95673601290275 554.8027741116396 354.3685005996906 553.6086122685992Q358.8134363487851 552.4144504255589 360.2397963279721 548.8319648964381Q361.66615630715916 545.2494793673171 361.66615630715916 538.3167064452219L361.66615630715916 538.3167064452219L361.66615630715916 427.72405131476637Q361.66615630715916 420.79127839267125 360.2397963279721 417.34147751277703Q358.8134363487851 413.89167663288276 354.3685005996906 412.56483014061575Q349.95673601290275 411.23798364834875 341.36540497547384 411.23798364834875L341.36540497547384 411.23798364834875Q340.9010087031804 411.23798364834875 340.9010087031804 409.8116236691617Q340.9010087031804 408.3852636899747 341.36540497547384 408.3852636899747L341.36540497547384 408.3852636899747Q347.1040160545287 408.3852636899747 354.26898711277056 408.7501464753481Q361.4339581710124 409.11502926072154 369.2955236376945 409.11502926072154L369.2955236376945 409.11502926072154Q377.65465653897667 409.11502926072154 384.8196275972185 408.7501464753481Q391.9845986554604 408.3852636899747 397.4910115983685 408.3852636899747L397.4910115983685 408.3852636899747Q398.22077716911537 408.3852636899747 398.22077716911537 409.8116236691617Q398.22077716911537 411.23798364834875 397.4910115983685 411.23798364834875L397.4910115983685 411.23798364834875Q388.8996805609396 411.23798364834875 384.48791597415175 412.56483014061575Q380.04298022505725 413.89167663288276 378.61662024587025 417.4741621620037Q377.1902602666832 421.0566476911247 377.1902602666832 427.9562494509131ZM506.15973931503686 428.2216187493665L506.15973931503686 537.3547427383284Q506.15973931503686 544.5197137965703 508.083666728824 548.2348839749179Q509.97442298030455 551.9168829909588 516.1774303316529 553.3432429701459Q522.4136088453079 554.8027741116396 534.5874254118577 554.8027741116396L534.5874254118577 554.8027741116396Q535.2840198202978 554.8027741116396 535.2840198202978 556.2291340908266Q535.2840198202978 557.6554940700137 534.5874254118577 557.6554940700137L534.5874254118577 557.6554940700137Q526.9248869190156 557.6554940700137 517.9686730962133 557.4232959338669Q509.01245927341097 557.1910977977202 498.5303719845016 557.1910977977202L498.5303719845016 557.1910977977202Q490.6356353555128 557.1910977977202 483.3379796480442 557.4232959338669Q476.07349510288236 557.6554940700137 470.3348840238275 557.6554940700137L470.3348840238275 557.6554940700137Q469.87048775153403 557.6554940700137 469.87048775153403 556.2291340908266Q469.87048775153403 554.8027741116396 470.3348840238275 554.8027741116396L470.3348840238275 554.8027741116396Q479.1584131974032 554.8027741116396 483.47066429727096 553.6086122685992Q487.7829153971387 552.4144504255589 489.20927537632576 548.8319648964381Q490.6356353555128 545.2494793673171 490.6356353555128 538.3167064452219L490.6356353555128 538.3167064452219L490.6356353555128 427.72405131476637Q490.6356353555128 420.79127839267125 489.20927537632576 417.34147751277703Q487.7829153971387 413.89167663288276 483.47066429727096 412.56483014061575Q479.1584131974032 411.23798364834875 470.3348840238275 411.23798364834875L470.3348840238275 411.23798364834875Q469.87048775153403 411.23798364834875 469.87048775153403 409.8116236691617Q469.87048775153403 408.3852636899747 470.3348840238275 408.3852636899747L470.3348840238275 408.3852636899747Q476.07349510288236 408.3852636899747 483.2384661611242 408.7501464753481Q490.4034372193661 409.11502926072154 498.26500268604815 409.11502926072154L498.26500268604815 409.11502926072154Q504.5011811997031 409.11502926072154 513.4573950225055 408.3852636899747Q522.4136088453079 407.65549811922784 531.4693361550302 407.65549811922784L531.4693361550302 407.65549811922784Q545.1026838630737 407.65549811922784 555.9496539373565 411.73555108294886Q566.829795173946 415.7824328843633 573.265000661441 424.3737639217922Q579.7333773112427 432.99826612152776 579.9655754473895 446.83064080341137L579.9655754473895 446.83064080341137Q579.9655754473895 459.50202480456136 575.2884415621483 468.55775211428374Q570.6444788392137 477.6466505863128 562.8824268594517 483.4847751522876Q555.1203748796896 489.3560708805692 545.7992782715139 492.20879083894323Q536.4781816633381 495.094681959624 527.190256217469 495.094681959624L527.190256217469 495.094681959624Q524.3043650967883 495.094681959624 521.3189604891875 494.8293126611706Q518.3335558815868 494.59711452502387 515.7130340593594 493.9005201165837L515.7130340593594 493.9005201165837Q514.7510703524658 493.6351508181303 515.1159531378393 492.10927735202324Q515.4808359232127 490.5502327236095 516.1774303316529 490.78243085975623L516.1774303316529 490.78243085975623Q518.3335558815868 491.24682713204965 520.6223660807473 491.5121964305031Q522.8780051176013 491.7443945666498 524.8019325313884 491.7443945666498L524.8019325313884 491.7443945666498Q534.5874254118577 491.7443945666498 543.1787564492865 487.432143466782Q551.7700874867155 483.15306352922084 557.0443022934769 474.19684970641856Q562.2853459379315 465.2406358836162 562.2853459379315 451.8394863117194L562.2853459379315 451.8394863117194Q562.2853459379315 438.7037060382759 557.5086985657703 429.7474922154736Q552.7320511936091 420.79127839267125 544.3729182923269 416.01463102051Q536.0137853910446 411.23798364834875 525.7307250759753 411.23798364834875L525.7307250759753 411.23798364834875Q517.8691596092933 411.23798364834875 513.6895931586522 412.1004338683223Q509.5100267080111 412.9297129259892 507.81829743037065 416.51219845511014Q506.15973931503686 420.0946839842311 506.15973931503686 428.2216187493665L506.15973931503686 428.2216187493665Z " fill="#22dd44" transform="matrix(0.42550783744021575,0,0,0.42550783744021575,0,94.626295835953)"/><path d="M741.3139813546385 444.6332911533854L741.3139813546385 444.6332911533854L741.3139813546385 537.7270069384795Q741.3139813546385 543.2031078670143 742.5277563027158 546.0540676287774Q743.7415312507932 548.9050273905405 747.2981741219035 549.808301770505Q750.8548169930139 550.7398034748434 757.572920194 550.7398034748434L757.572920194 550.7398034748434L779.7313698275047 550.7398034748434Q791.5021640914175 550.7398034748434 798.4178585630209 543.31601716451Q805.3335530346243 535.8922308541764 807.3659203895445 523.8956179952727L807.3659203895445 523.8956179952727Q807.3659203895445 523.3028441834208 808.4950133645001 523.3875261565425Q809.5958790150819 523.5004354540381 809.5958790150819 524.1214365902638L809.5958790150819 524.1214365902638Q809.0031052032301 529.5975375187986 808.3821040670045 537.4165063703666Q807.761102930779 545.2354752219345 807.761102930779 551.9535784229207L807.761102930779 551.9535784229207Q807.761102930779 555.002129455301 804.7125518983987 555.002129455301L804.7125518983987 555.002129455301L710.8284710308358 555.002129455301Q710.4332884896012 555.002129455301 710.4332884896012 553.7883545072236Q710.4332884896012 552.5745795591463 710.8284710308358 552.5745795591463L710.8284710308358 552.5745795591463Q718.1393480436736 552.5745795591463 721.8935821854011 551.5583958816862Q725.6760436515026 550.5422122042262 726.8898185995799 547.4936611718458Q728.1035935476573 544.4451101394656 728.1035935476573 538.5455993453222L728.1035935476573 538.5455993453222L728.1035935476573 444.4356998827682Q728.1035935476573 438.53618908862484 726.8898185995799 435.6005473537401Q725.6760436515026 432.6649056188554 721.8935821854011 431.5358126438998Q718.1393480436736 430.4067196689441 710.8284710308358 430.4067196689441L710.8284710308358 430.4067196689441Q710.4332884896012 430.4067196689441 710.4332884896012 429.19294472086676Q710.4332884896012 427.9791697727894 710.8284710308358 427.9791697727894L710.8284710308358 427.9791697727894Q715.711798147519 427.9791697727894 721.8089002122795 428.28967034090226Q727.90600227704 428.6001709090151 734.5958781536524 428.6001709090151L734.5958781536524 428.6001709090151Q741.709163895873 428.6001709090151 747.8062659606335 428.28967034090226Q753.903368025394 427.9791697727894 758.5891038714601 427.9791697727894L758.5891038714601 427.9791697727894Q759.2101050076857 427.9791697727894 759.2101050076857 429.19294472086676Q759.2101050076857 430.4067196689441 758.5891038714601 430.4067196689441L758.5891038714601 430.4067196689441Q751.2782268586222 430.4067196689441 747.5239927168946 431.5358126438998Q743.7415312507932 432.6649056188554 742.5277563027158 435.71345665123573Q741.3139813546385 438.762007683616 741.3139813546385 444.6332911533854ZM857.5541031263235 557.4296793514557L857.5541031263235 557.4296793514557Q844.9647164555679 557.4296793514557 836.4400644946527 551.8406691254252Q827.8871852093636 546.2516588993947 823.624859228906 537.3318243972449Q819.3625332484484 528.3837625707213 819.3625332484484 518.4195170667376L819.3625332484484 518.4195170667376Q819.3625332484484 506.0277216665993 825.1491347450961 496.1763854601112Q830.9357362417438 486.2968219292492 840.7870724482319 480.51022043260144Q850.6666359790939 474.7236189359537 863.0584313792323 474.7236189359537L863.0584313792323 474.7236189359537Q874.2364518312933 474.7236189359537 880.2206445985584 480.11503789136697Q886.2330646901972 485.5064568467802 886.2330646901972 494.8497012145383L886.2330646901972 494.8497012145383Q886.2330646901972 497.0796598400757 885.8096548245888 498.29343478815304Q885.4144722833544 499.5072097362304 883.7772874696686 499.5072097362304L883.7772874696686 499.5072097362304L872.0064932057559 499.5072097362304Q872.7968582882248 489.5711915566206 868.4498503346456 484.17977260120733Q864.0746150566924 478.7883536457941 856.1427369076289 478.7883536457941L856.1427369076289 478.7883536457941Q844.7671251849507 478.7883536457941 838.7547050933118 487.3130056067093Q832.7705123260467 495.8658848919984 832.7705123260467 510.4876389176742L832.7705123260467 510.4876389176742Q832.7705123260467 522.0890692353436 836.5247464677743 531.0089037374933Q840.2789806095019 539.9569655640169 847.5051756492181 545.1507932488129Q854.7313706889344 550.316393609235 864.6673888685441 550.316393609235L864.6673888685441 550.316393609235Q869.9741258508358 550.316393609235 875.4502267793706 548.7074361199232Q880.9263277079056 547.0702513062374 885.8096548245888 543.6265177326227L885.8096548245888 543.6265177326227Q886.2330646901972 543.2031078670143 886.9387477995444 544.1346095713527Q887.6444309088918 545.0378839513173 887.2492483676573 545.6588850875429L887.2492483676573 545.6588850875429Q879.9101440304455 551.9535784229207 872.5992670176076 554.6916288871881Q865.2883900047698 557.4296793514557 857.5541031263235 557.4296793514557ZM875.2526355087534 499.5072097362304L829.1009601574409 499.93061960183877L828.9033688868236 497.277251110693L875.2526355087534 496.2610674332329L875.2526355087534 499.5072097362304ZM940.6835734074338 557.6554979464468L940.6835734074338 557.6554979464468Q928.6869605485299 557.6554979464468 919.7671260463802 551.7559871523034Q910.8190642198566 545.8564763581601 905.9357371031734 536.005140151672Q901.0524099864901 526.1538039451839 901.0524099864901 514.7499648981318L901.0524099864901 514.7499648981318Q901.0524099864901 504.1929455822964 904.9195534257134 496.4586587038501Q908.7866968649365 488.7525991497778 915.2789814709315 483.75636273559894Q921.7994934013004 478.7883536457941 929.4208709822511 476.3608037496394Q937.0422485632018 473.90502652911084 944.3531255760397 473.90502652911084L944.3531255760397 473.90502652911084Q956.744920976178 473.90502652911084 965.5800735052061 480.00212859387136Q974.415226034234 486.09923065863194 979.1009618803001 495.66829362138117Q983.786697726366 505.2091292597565 983.786697726366 515.7661485755918L983.786697726366 515.7661485755918Q983.786697726366 528.7789451119559 977.8871869322228 538.1221894797138Q971.9876761380795 547.4936611718458 962.221021904713 552.5745795591463Q952.4825949957204 557.6554979464468 940.6835734074338 557.6554979464468ZM946.5830842015772 553.7883545072236L946.5830842015772 553.7883545072236Q957.3659221124036 553.7883545072236 963.6606154477814 546.1669769262729Q969.9553087831592 538.5455993453222 969.9553087831592 521.468068099118L969.9553087831592 521.468068099118Q969.9553087831592 508.6528628333712 965.7776647758234 498.8015266268831Q961.6282480928613 488.95019042039496 954.3173710800233 483.36118019436447Q946.9782667428116 477.77216996833397 937.6350223750536 477.77216996833397L937.6350223750536 477.77216996833397Q926.8804117886009 477.77216996833397 920.7833097238404 485.70404811739746Q914.6862076590797 493.63592626646096 914.6862076590797 508.455271562754L914.6862076590797 508.455271562754Q914.6862076590797 520.8470669628923 918.7509423689202 531.2347223324844Q922.8156770787606 541.5941503777026 930.0136447941028 547.6912524424631Q937.239839833819 553.7883545072236 946.5830842015772 553.7883545072236ZM1054.9195551485727 555.002129455301L1054.9195551485727 555.002129455301Q1054.2985540123468 555.002129455301 1054.2985540123468 553.7883545072236Q1054.2985540123468 552.5745795591463 1054.9195551485727 552.5745795591463L1054.9195551485727 552.5745795591463Q1062.8232059732622 552.5745795591463 1065.166073896295 549.808301770505Q1067.508941819328 547.0702513062374 1067.508941819328 538.5455993453222L1067.508941819328 538.5455993453222L1067.508941819328 505.60431180099096Q1067.508941819328 493.41010767146986 1063.0490245682531 487.8210974454393Q1058.5608799928045 482.2320872194088 1048.822453083812 482.2320872194088L1048.822453083812 482.2320872194088Q1041.4833487466003 482.2320872194088 1033.7772891925279 486.9178230654748Q1026.0430023140816 491.6035589115408 1020.5669013855467 499.73302833122153L1020.5669013855467 499.73302833122153L1019.7483089787037 497.277251110693Q1028.6963708052272 485.2806382517891 1037.5315233342553 479.6069460526369Q1046.3666758632835 473.90502652911084 1055.5123289604244 473.90502652911084L1055.5123289604244 473.90502652911084Q1066.6903494124854 473.90502652911084 1072.9003607747413 480.11503789136697Q1079.0821448126235 486.2968219292492 1079.0821448126235 498.7168446537614L1079.0821448126235 498.7168446537614L1079.0821448126235 538.5455993453222Q1079.0821448126235 547.0702513062374 1081.4250127356568 549.808301770505Q1083.7678806586896 552.5745795591463 1091.699758807753 552.5745795591463L1091.699758807753 552.5745795591463Q1092.2925326196048 552.5745795591463 1092.2925326196048 553.7883545072236Q1092.2925326196048 555.002129455301 1091.699758807753 555.002129455301L1091.699758807753 555.002129455301Q1088.2277979097644 555.002129455301 1083.4573800905769 554.8045381846837Q1078.6869622713891 554.6069469140665 1073.4084526134716 554.6069469140665L1073.4084526134716 554.6069469140665Q1068.1299429555538 554.6069469140665 1063.2466158388706 554.8045381846837Q1058.3632887221875 555.002129455301 1054.9195551485727 555.002129455301ZM1000.2432278363448 555.002129455301L1000.2432278363448 555.002129455301Q999.6222267001192 555.002129455301 999.6222267001192 553.7883545072236Q999.6222267001192 552.5745795591463 1000.2432278363448 552.5745795591463L1000.2432278363448 552.5745795591463Q1008.1751059854083 552.5745795591463 1010.4897465840673 549.808301770505Q1012.8326145071004 547.0702513062374 1012.8326145071004 538.5455993453222L1012.8326145071004 538.5455993453222L1012.8326145071004 498.29343478815304Q1012.8326145071004 491.6035589115408 1011.3083389909102 488.44209858166494Q1009.7840634747201 485.2806382517891 1005.7193287648796 485.2806382517891L1005.7193287648796 485.2806382517891Q1003.6869614099595 485.2806382517891 1000.9489109456921 486.09923065863194Q998.2108604814246 486.9178230654748 994.7388995834359 488.3291892841694L994.7388995834359 488.3291892841694Q993.948534500967 488.5550078791605 993.4404426622369 487.53882420170044Q992.9323508235069 486.52264052424033 993.7227159059759 486.09923065863194L993.7227159059759 486.09923065863194L1017.3207590825491 474.92121020657095Q1017.9135328944009 474.7236189359537 1018.5345340306263 474.7236189359537L1018.5345340306263 474.7236189359537Q1019.945900249321 474.7236189359537 1022.1758588748584 478.9859449164113Q1024.43404482477 483.2482708968689 1024.43404482477 491.37774031654965L1024.43404482477 491.37774031654965L1024.43404482477 538.5455993453222Q1024.43404482477 547.0702513062374 1026.748685423429 549.808301770505Q1029.0915533464618 552.5745795591463 1037.0234314955255 552.5745795591463L1037.0234314955255 552.5745795591463Q1037.644432631751 552.5745795591463 1037.644432631751 553.7883545072236Q1037.644432631751 555.002129455301 1037.0234314955255 555.002129455301L1037.0234314955255 555.002129455301Q1033.5796979219106 555.002129455301 1028.781052778349 554.8045381846837Q1024.0106349591615 554.6069469140665 1018.7321253012436 554.6069469140665L1018.7321253012436 554.6069469140665Q1013.453615643326 554.6069469140665 1008.5702885266427 554.8045381846837Q1003.6869614099595 555.002129455301 1000.2432278363448 555.002129455301ZM1180.9263311536238 546.2516588993947L1159.9816564681964 556.2159044033783Q1159.1630640613535 556.6393142689867 1158.344471654511 556.6393142689867L1158.344471654511 556.6393142689867Q1155.7193304877387 556.6393142689867 1153.2635532672102 552.2640789910336Q1150.8360033710555 547.8888437130803 1150.8360033710555 539.5617830227824L1150.8360033710555 539.5617830227824L1150.8360033710555 503.17676190483627Q1150.8360033710555 493.63592626646096 1149.1141365842482 488.3291892841694Q1147.3922697974408 483.0506796262517 1144.428400738182 481.0183122713315Q1141.4927590032976 478.9859449164113 1137.8232068346915 478.9859449164113L1137.8232068346915 478.9859449164113Q1132.7422884473913 478.9859449164113 1129.4961461443936 481.52640411006155Q1126.2500038413964 484.0668633037118 1124.6128190277104 487.9340067429349Q1123.0038615383987 491.80115018215804 1122.3828604021733 495.66829362138117L1122.3828604021733 495.66829362138117Q1122.1852691315557 498.49102605877033 1120.660993615366 500.9468032792988Q1119.1367180991756 503.3743531754535 1114.8743921187179 503.3743531754535L1114.8743921187179 503.3743531754535Q1111.6000224913464 503.3743531754535 1109.7934737314176 501.7653956861417Q1107.9586976471146 500.128210872456 1107.9586976471146 497.277251110693L1107.9586976471146 497.277251110693Q1107.9586976471146 493.63592626646096 1111.6000224913464 489.6558735297423Q1115.2695746599525 485.70404811739746 1120.858584885983 482.3449965169044Q1126.4475951120135 478.9859449164113 1132.6576064742694 476.86889558836947Q1138.8393905121518 474.7236189359537 1144.3437187650607 474.7236189359537L1144.3437187650607 474.7236189359537Q1152.049778319133 474.7236189359537 1157.1306967064334 480.11503789136697Q1162.211615093734 485.5064568467802 1162.211615093734 497.0796598400757L1162.211615093734 497.0796598400757L1162.211615093734 533.0412710924134Q1162.211615093734 540.154556834634 1164.046391178037 543.4289264620055Q1165.8811672623397 546.6750687650031 1169.9459019721803 546.6750687650031L1169.9459019721803 546.6750687650031Q1173.587226816412 546.6750687650031 1180.1077387467813 544.0217002738572L1180.1077387467813 544.0217002738572Q1181.1239224242413 543.6265177326227 1181.5191049654757 544.7273833832045Q1181.9425148310838 545.8564763581601 1180.9263311536238 546.2516588993947L1180.9263311536238 546.2516588993947ZM1120.1529017766356 556.4134956739956L1120.1529017766356 556.4134956739956Q1113.6323898462667 556.4134956739956 1110.3862475432693 552.8568528028852Q1107.1401052402716 549.3002099317748 1107.1401052402716 544.6427014100829L1107.1401052402716 544.6427014100829Q1107.1401052402716 538.9407818865568 1111.6000224913464 535.5817302860637Q1116.0881670667954 532.2509060099444 1126.2500038413964 528.7789451119559L1126.2500038413964 528.7789451119559L1152.8683707259759 519.2381094735805L1153.4893718622016 521.468068099118L1129.8913286856282 530.4161299256416Q1125.2338201639361 532.2509060099444 1123.2861347821377 534.4808646354819Q1121.3666767247132 536.7108232610193 1121.3666767247132 540.154556834634L1121.3666767247132 540.154556834634Q1121.3666767247132 544.4451101394656 1123.7942266208674 546.7597507381247Q1126.2500038413964 549.1026186611576 1130.1171472806193 549.1026186611576L1130.1171472806193 549.1026186611576Q1132.3471059061567 549.1026186611576 1134.3794732610768 548.5945268224276Q1136.411840615997 548.0864349836976 1138.4442079709174 547.0702513062374L1138.4442079709174 547.0702513062374L1155.7193304877387 538.348008074705L1156.1145130289733 540.7755579708597L1138.4442079709174 550.316393609235Q1132.3471059061567 553.3649446416152 1128.2823711963165 554.8892201578054Q1124.2176364864758 556.4134956739956 1120.1529017766356 556.4134956739956ZM1210.3956577999666 499.93061960183877L1210.3956577999666 499.93061960183877L1209.5770653931238 497.7006609763013Q1217.085533676579 488.5550078791605 1221.9688607932621 483.5587714649817Q1226.8521879099453 478.59076237517684 1230.4088307810557 476.6430769933783Q1233.965473652166 474.7236189359537 1237.2116159551636 474.7236189359537L1237.2116159551636 474.7236189359537Q1241.473941935621 474.7236189359537 1245.651585942957 477.1511688321084Q1249.8010026259192 479.6069460526369 1249.8010026259192 483.0506796262517L1249.8010026259192 483.0506796262517Q1249.8010026259192 485.70404811739746 1248.0791358391116 487.53882420170044Q1246.3572690523042 489.34537296162944 1243.1111267493068 489.34537296162944L1243.1111267493068 489.34537296162944Q1240.457758258161 489.34537296162944 1238.622982173858 487.7364154723177Q1236.8164334139292 486.09923065863194 1234.7840660590089 484.68786443993736Q1232.7516987040885 483.2482708968689 1229.477329076717 483.2482708968689L1229.477329076717 483.2482708968689Q1227.6707803167883 483.2482708968689 1225.6384129618682 484.264454574329Q1223.6060456069479 485.2806382517891 1220.134084708959 488.8372811228994Q1216.6903511353444 492.39392399400975 1210.3956577999666 499.93061960183877ZM1190.4671667919993 555.002129455301L1190.4671667919993 555.002129455301Q1189.8461656557738 555.002129455301 1189.8461656557738 553.7883545072236Q1189.8461656557738 552.5745795591463 1190.4671667919993 552.5745795591463L1190.4671667919993 552.5745795591463Q1198.3990449410626 552.5745795591463 1200.7419128640959 549.808301770505Q1203.056553462755 547.0702513062374 1203.056553462755 538.5455993453222L1203.056553462755 538.5455993453222L1203.056553462755 498.29343478815304Q1203.056553462755 491.6035589115408 1201.5322779465646 488.44209858166494Q1200.0080024303747 485.2806382517891 1195.943267720534 485.2806382517891L1195.943267720534 485.2806382517891Q1193.910900365614 485.2806382517891 1191.1728499013466 486.09923065863194Q1188.4347994370792 486.9178230654748 1184.9910658634644 488.3291892841694L1184.9910658634644 488.3291892841694Q1184.1724734566214 488.5550078791605 1183.6643816178912 487.53882420170044Q1183.1562897791614 486.52264052424033 1183.9748821860044 486.09923065863194L1183.9748821860044 486.09923065863194L1207.5446980382035 474.92121020657095Q1208.1374718500551 474.7236189359537 1208.758472986281 474.7236189359537L1208.758472986281 474.7236189359537Q1210.1698392049755 474.7236189359537 1212.4280251548867 478.9859449164113Q1214.6579837804243 483.2482708968689 1214.6579837804243 491.37774031654965L1214.6579837804243 491.37774031654965L1214.6579837804243 538.5455993453222Q1214.6579837804243 544.2192915444745 1216.069349999119 547.3807518743503Q1217.5089435421874 550.5422122042262 1221.7712695226448 551.5583958816862Q1226.0335955031023 552.5745795591463 1234.3606561934005 552.5745795591463L1234.3606561934005 552.5745795591463Q1235.1792486002432 552.5745795591463 1235.1792486002432 553.7883545072236Q1235.1792486002432 555.002129455301 1234.3606561934005 555.002129455301L1234.3606561934005 555.002129455301Q1229.477329076717 555.002129455301 1222.8721351732265 554.8045381846837Q1216.266941269736 554.6069469140665 1208.9560642568981 554.6069469140665L1208.9560642568981 554.6069469140665Q1203.6775545989804 554.6069469140665 1198.7942274822972 554.8045381846837Q1193.910900365614 555.002129455301 1190.4671667919993 555.002129455301ZM1291.8879432673912 557.6554979464468L1291.8879432673912 557.6554979464468Q1283.5608825770933 557.6554979464468 1276.2217782398816 552.7721708297636Q1268.9109012270435 547.8888437130803 1264.5356659490903 539.2512824546695Q1260.1886579955112 530.6137211962588 1260.1886579955112 518.8146996079721L1260.1886579955112 518.8146996079721Q1260.1886579955112 507.24149661467663 1264.5356659490903 498.8015266268831Q1268.9109012270435 490.36155663908954 1275.826595698647 484.88545571055465Q1282.7422901702503 479.4093547820197 1290.8717595899311 476.6430769933783Q1299.001229009612 473.90502652911084 1306.509697293067 473.90502652911084L1306.509697293067 473.90502652911084Q1313.6229830352877 473.90502652911084 1319.9176763706655 476.3608037496394Q1326.2405970304171 478.7883536457941 1331.3215154177178 483.0506796262517L1331.3215154177178 483.0506796262517L1329.0633294678064 496.6844772988412Q1323.9824110805057 488.7525991497778 1317.6877177451279 483.36118019436447Q1311.39302440975 477.9697612389512 1301.033596364532 477.9697612389512L1301.033596364532 477.9697612389512Q1288.6418009643937 477.9697612389512 1281.020423383443 486.8049137679792Q1273.3990458024923 495.66829362138117 1273.3990458024923 512.7175975432116L1273.3990458024923 512.7175975432116Q1273.3990458024923 524.319027860881 1276.842779376107 532.7589978486745Q1280.2865129497218 541.1707405120942 1286.3836150144823 545.7435670606646Q1292.480717079243 550.316393609235 1299.8198214164547 550.316393609235L1299.8198214164547 550.316393609235Q1308.9654745135954 550.316393609235 1316.0787602558162 545.2354752219345Q1323.192045998037 540.154556834634 1329.4867393334148 533.0412710924134L1329.4867393334148 533.0412710924134L1331.0956968227265 534.4808646354819Q1326.8333708422688 539.3641917521651 1321.1596786431169 544.7273833832045Q1315.4577591195907 550.1188023386178 1308.2315640798745 553.8730364803453Q1301.033596364532 557.6554979464468 1291.8879432673912 557.6554979464468ZM1337.418617482478 409.2926810372733L1337.418617482478 409.2926810372733L1337.418617482478 532.646088551179Q1337.418617482478 539.9569655640169 1339.0275749717898 543.2031078670143Q1340.6647597854758 546.4774774943858 1344.729494495316 546.4774774943858L1344.729494495316 546.4774774943858Q1346.7618618502365 546.4774774943858 1349.499912314504 545.9693856556557Q1352.2379627787714 545.4612938169257 1355.2865138111515 543.6265177326227L1355.2865138111515 543.6265177326227Q1356.3026974886116 543.2031078670143 1356.8107893273418 544.33220084197Q1357.3188811660716 545.4612938169257 1356.5002887592286 545.8564763581601L1356.5002887592286 545.8564763581601L1334.1442478551066 556.4134956739956Q1333.353882772638 556.8369055396039 1332.535290365795 556.8369055396039L1332.535290365795 556.8369055396039Q1330.0795131452664 556.8369055396039 1328.0471457903463 552.1511696935379Q1326.0147784354263 547.4936611718458 1326.0147784354263 538.5455993453222L1326.0147784354263 538.5455993453222L1326.0147784354263 433.6810892963156Q1326.0147784354263 426.34198495910374 1324.6034122167316 423.09584265610624Q1323.192045998037 419.8497003531087 1319.3249025588138 419.8497003531087L1319.3249025588138 419.8497003531087Q1317.4901264745108 419.8497003531087 1315.344849822095 420.555383462456Q1313.227800494053 421.26106657180327 1309.9816581910559 422.70066011487177L1309.9816581910559 422.70066011487177Q1309.163065784213 423.09584265610624 1308.6549739454827 421.8820677080289Q1308.1468821067529 420.66829275995156 1308.7396559186045 420.4707014893344L1308.7396559186045 420.4707014893344L1334.567657720715 407.85308749420483Q1334.9628402619496 407.6554962235876 1335.583841398175 407.6554962235876L1335.583841398175 407.6554962235876Q1336.1766152100272 407.6554962235876 1336.7976163462527 408.1635880623177Q1337.418617482478 408.6716799010477 1337.418617482478 409.2926810372733ZM1403.8657390586186 557.6554979464468L1403.8657390586186 557.6554979464468Q1391.8691261997146 557.6554979464468 1382.9210643731913 551.7559871523034Q1374.0012298710417 545.8564763581601 1369.1179027543585 536.005140151672Q1364.2345756376749 526.1538039451839 1364.2345756376749 514.7499648981318L1364.2345756376749 514.7499648981318Q1364.2345756376749 504.1929455822964 1368.1017190768985 496.4586587038501Q1371.9688625161216 488.7525991497778 1378.4611471221165 483.75636273559894Q1384.9534317281114 478.7883536457941 1392.574809309062 476.3608037496394Q1400.196186890013 473.90502652911084 1407.5352912272247 473.90502652911084L1407.5352912272247 473.90502652911084Q1419.9270866273628 473.90502652911084 1428.762239156391 480.00212859387136Q1437.597391685419 486.09923065863194 1442.2831275314848 495.66829362138117Q1446.940636053177 505.2091292597565 1446.940636053177 515.7661485755918L1446.940636053177 515.7661485755918Q1446.940636053177 528.7789451119559 1441.0693525834076 538.1221894797138Q1435.1698417892644 547.4936611718458 1425.4031875558976 552.5745795591463Q1415.6647606469055 557.6554979464468 1403.8657390586186 557.6554979464468ZM1409.7652498527618 553.7883545072236L1409.7652498527618 553.7883545072236Q1420.5198604392144 553.7883545072236 1426.8427810989665 546.1669769262729Q1433.1374744343443 538.5455993453222 1433.1374744343443 521.468068099118L1433.1374744343443 521.468068099118Q1433.1374744343443 508.6528628333712 1428.9598304270085 498.8015266268831Q1424.8104137440464 488.95019042039496 1417.4713094068343 483.36118019436447Q1410.1604323939964 477.77216996833397 1400.8171880262385 477.77216996833397L1400.8171880262385 477.77216996833397Q1390.034350115412 477.77216996833397 1383.9372480506513 485.70404811739746Q1377.8401459858906 493.63592626646096 1377.8401459858906 508.455271562754L1377.8401459858906 508.455271562754Q1377.8401459858906 520.8470669628923 1381.9048806957312 531.2347223324844Q1385.9696154055714 541.5941503777026 1393.1958104452879 547.6912524424631Q1400.4220054850039 553.7883545072236 1409.7652498527618 553.7883545072236ZM1540.852944245114 444.8591097483765L1540.852944245114 537.7270069384795Q1540.852944245114 543.82410900324 1542.4619017344257 546.9855693331158Q1544.0990865481112 550.1188023386178 1549.377596206029 551.3325772866951Q1554.6561058639468 552.5745795591463 1565.043761233539 552.5745795591463L1565.043761233539 552.5745795591463Q1565.6365350453907 552.5745795591463 1565.6365350453907 553.7883545072236Q1565.6365350453907 555.002129455301 1565.043761233539 555.002129455301L1565.043761233539 555.002129455301Q1558.52324930317 555.002129455301 1550.9018717222193 554.8045381846837Q1543.2804941412687 554.6069469140665 1534.332432314745 554.6069469140665L1534.332432314745 554.6069469140665Q1527.6425564381325 554.6069469140665 1521.4325450758765 554.8045381846837Q1515.2507610379944 555.002129455301 1510.3674339213112 555.002129455301L1510.3674339213112 555.002129455301Q1509.9440240557028 555.002129455301 1509.9440240557028 553.7883545072236Q1509.9440240557028 552.5745795591463 1510.3674339213112 552.5745795591463L1510.3674339213112 552.5745795591463Q1517.8759022047661 552.5745795591463 1521.5454543733722 551.5583958816862Q1525.186779217604 550.5422122042262 1526.4287814900554 547.4936611718458Q1527.6425564381325 544.4451101394656 1527.6425564381325 538.5455993453222L1527.6425564381325 538.5455993453222L1527.6425564381325 444.4356998827682Q1527.6425564381325 438.53618908862484 1526.4287814900554 435.6005473537401Q1525.186779217604 432.6649056188554 1521.5454543733722 431.5358126438998Q1517.8759022047661 430.4067196689441 1510.3674339213112 430.4067196689441L1510.3674339213112 430.4067196689441Q1509.9440240557028 430.4067196689441 1509.9440240557028 429.19294472086676Q1509.9440240557028 427.9791697727894 1510.3674339213112 427.9791697727894L1510.3674339213112 427.9791697727894Q1515.2507610379944 427.9791697727894 1521.3478631027551 428.28967034090226Q1527.4449651675154 428.6001709090151 1534.1348410441278 428.6001709090151L1534.1348410441278 428.6001709090151Q1539.4133507020456 428.6001709090151 1547.0347282829962 427.9791697727894Q1554.6561058639468 427.35816863656385 1562.390392742393 427.35816863656385L1562.390392742393 427.35816863656385Q1573.9635957356886 427.35816863656385 1583.2221581303247 430.8301295345525Q1592.4807205249613 434.27386310816723 1597.9568214534966 441.58474012100515Q1603.4329223820314 448.92384445821693 1603.6587409770223 460.69463872212964L1603.6587409770223 460.69463872212964Q1603.6587409770223 471.47747663295615 1599.678688240304 479.18353618702855Q1595.726862827959 486.9178230654748 1589.1216689244684 491.8858321552797Q1582.5164750209779 496.8820685694585 1574.584596871914 499.30961846561314Q1566.6527187228508 501.7653956861417 1558.720840573787 501.7653956861417L1558.720840573787 501.7653956861417Q1556.2932906776327 501.7653956861417 1553.7528314839824 501.5395770911506Q1551.212372290332 501.3419858205333 1548.9824136647944 500.74921200868164L1548.9824136647944 500.74921200868164Q1548.163821257952 500.5233934136905 1548.4743218260646 499.22493649249145Q1548.7848223941774 497.89825224691856 1549.377596206029 498.09584351753585L1549.377596206029 498.09584351753585Q1551.212372290332 498.49102605877033 1553.1318303477565 498.7168446537614Q1555.0795157295552 498.91443592437867 1556.6884732188669 498.91443592437867L1556.6884732188669 498.91443592437867Q1565.043761233539 498.91443592437867 1572.354638246377 495.2448837557728Q1579.6655152592148 491.6035589115408 1584.1254325102896 483.9821813305901Q1588.6135770857381 476.3608037496394 1588.6135770857381 464.95696470258724L1588.6135770857381 464.95696470258724Q1588.6135770857381 453.77894425052625 1584.548842375898 446.15756666957554Q1580.4841076660578 438.53618908862484 1573.370821923837 434.4714543787845Q1566.2575361816162 430.4067196689441 1557.5070656257099 430.4067196689441L1557.5070656257099 430.4067196689441Q1550.8171897490975 430.4067196689441 1547.260546877987 431.1406301026653Q1543.703904006877 431.84631321201255 1542.2643104638082 434.89486424439286Q1540.852944245114 437.9434152767732 1540.852944245114 444.8591097483765L1540.852944245114 444.8591097483765ZM1653.0283313069585 557.4296793514557L1653.0283313069585 557.4296793514557Q1640.438944636203 557.4296793514557 1631.8860653509137 551.8406691254252Q1623.3614133899987 546.2516588993947 1619.099087409541 537.3318243972449Q1614.8367614290833 528.3837625707213 1614.8367614290833 518.4195170667376L1614.8367614290833 518.4195170667376Q1614.8367614290833 506.0277216665993 1620.6233629257313 496.1763854601112Q1626.4099644223788 486.2968219292492 1636.261300628867 480.51022043260144Q1646.1126368353553 474.7236189359537 1658.5326595598672 474.7236189359537L1658.5326595598672 474.7236189359537Q1669.7106800119286 474.7236189359537 1675.6948727791932 480.11503789136697Q1681.6790655464583 485.5064568467802 1681.6790655464583 494.8497012145383L1681.6790655464583 494.8497012145383Q1681.6790655464583 497.0796598400757 1681.2838830052237 498.29343478815304Q1680.8887004639896 499.5072097362304 1679.2515156503036 499.5072097362304L1679.2515156503036 499.5072097362304L1667.4524940620172 499.5072097362304Q1668.2710864688597 489.5711915566206 1663.8958511909068 484.17977260120733Q1659.5488432373277 478.7883536457941 1651.616965088264 478.7883536457941L1651.616965088264 478.7883536457941Q1640.2413533655858 478.7883536457941 1634.228933273947 487.3130056067093Q1628.2447405066819 495.8658848919984 1628.2447405066819 510.4876389176742L1628.2447405066819 510.4876389176742Q1628.2447405066819 522.0890692353436 1631.9989746484093 531.0089037374933Q1635.7532087901368 539.9569655640169 1642.9794038298533 545.1507932488129Q1650.1773715451955 550.316393609235 1660.1416170491789 550.316393609235L1660.1416170491789 550.316393609235Q1665.4201267070966 550.316393609235 1670.9244549600057 548.7074361199232Q1676.4005558885406 547.0702513062374 1681.2838830052237 543.6265177326227L1681.2838830052237 543.6265177326227Q1681.6790655464583 543.2031078670143 1682.4129759801795 544.1346095713527Q1683.1186590895268 545.0378839513173 1682.6952492239184 545.6588850875429L1682.6952492239184 545.6588850875429Q1675.3843722110805 551.9535784229207 1668.0734951982427 554.6916288871881Q1660.7626181854048 557.4296793514557 1653.0283313069585 557.4296793514557ZM1670.7268636893882 499.5072097362304L1624.5751883380758 499.93061960183877L1624.3775970674587 497.277251110693L1670.7268636893882 496.2610674332329L1670.7268636893882 499.5072097362304ZM1719.5036802074728 499.93061960183877L1719.5036802074728 499.93061960183877L1718.6850878006298 497.7006609763013Q1726.1935560840852 488.5550078791605 1731.0768832007684 483.5587714649817Q1735.9602103174516 478.59076237517684 1739.516853188562 476.6430769933783Q1743.0734960596724 474.7236189359537 1746.31963836267 474.7236189359537L1746.31963836267 474.7236189359537Q1750.5819643431273 474.7236189359537 1754.7596083504632 477.1511688321084Q1758.9090250334252 479.6069460526369 1758.9090250334252 483.0506796262517L1758.9090250334252 483.0506796262517Q1758.9090250334252 485.70404811739746 1757.1871582466179 487.53882420170044Q1755.465291459811 489.34537296162944 1752.2191491568133 489.34537296162944L1752.2191491568133 489.34537296162944Q1749.5657806656673 489.34537296162944 1747.7310045813642 487.7364154723177Q1745.9244558214355 486.09923065863194 1743.8920884665154 484.68786443993736Q1741.8597211115948 483.2482708968689 1738.5853514842233 483.2482708968689L1738.5853514842233 483.2482708968689Q1736.7788027242946 483.2482708968689 1734.7464353693745 484.264454574329Q1732.7140680144544 485.2806382517891 1729.2421071164654 488.8372811228994Q1725.7983735428506 492.39392399400975 1719.5036802074728 499.93061960183877ZM1699.5751891995055 555.002129455301L1699.5751891995055 555.002129455301Q1698.95418806328 555.002129455301 1698.95418806328 553.7883545072236Q1698.95418806328 552.5745795591463 1699.5751891995055 552.5745795591463L1699.5751891995055 552.5745795591463Q1707.5070673485689 552.5745795591463 1709.8499352716021 549.808301770505Q1712.1645758702612 547.0702513062374 1712.1645758702612 538.5455993453222L1712.1645758702612 538.5455993453222L1712.1645758702612 498.29343478815304Q1712.1645758702612 491.6035589115408 1710.6403003540713 488.44209858166494Q1709.116024837881 485.2806382517891 1705.0512901280404 485.2806382517891L1705.0512901280404 485.2806382517891Q1703.0189227731203 485.2806382517891 1700.2808723088528 486.09923065863194Q1697.5428218445854 486.9178230654748 1694.0990882709707 488.3291892841694L1694.0990882709707 488.3291892841694Q1693.2804958641277 488.5550078791605 1692.772404025398 487.53882420170044Q1692.2643121866677 486.52264052424033 1693.0829045935106 486.09923065863194L1693.0829045935106 486.09923065863194L1716.6527204457097 474.92121020657095Q1717.2454942575614 474.7236189359537 1717.8664953937869 474.7236189359537L1717.8664953937869 474.7236189359537Q1719.2778616124815 474.7236189359537 1721.536047562393 478.9859449164113Q1723.7660061879305 483.2482708968689 1723.7660061879305 491.37774031654965L1723.7660061879305 491.37774031654965L1723.7660061879305 538.5455993453222Q1723.7660061879305 544.2192915444745 1725.1773724066252 547.3807518743503Q1726.6169659496936 550.5422122042262 1730.8792919301513 551.5583958816862Q1735.1416179106086 552.5745795591463 1743.468678600907 552.5745795591463L1743.468678600907 552.5745795591463Q1744.2872710077495 552.5745795591463 1744.2872710077495 553.7883545072236Q1744.2872710077495 555.002129455301 1743.468678600907 555.002129455301L1743.468678600907 555.002129455301Q1738.5853514842233 555.002129455301 1731.9801575807328 554.8045381846837Q1725.3749636772422 554.6069469140665 1718.0640866644044 554.6069469140665L1718.0640866644044 554.6069469140665Q1712.7855770064866 554.6069469140665 1707.9022498898034 554.8045381846837Q1703.0189227731203 555.002129455301 1699.5751891995055 555.002129455301ZM1807.4882502808928 557.4296793514557L1807.4882502808928 557.4296793514557Q1794.8988636101371 557.4296793514557 1786.345984324848 551.8406691254252Q1777.8213323639325 546.2516588993947 1773.5590063834752 537.3318243972449Q1769.2966804030175 528.3837625707213 1769.2966804030175 518.4195170667376L1769.2966804030175 518.4195170667376Q1769.2966804030175 506.0277216665993 1775.083281899665 496.1763854601112Q1780.869883396313 486.2968219292492 1790.7212196028008 480.51022043260144Q1800.572555809289 474.7236189359537 1812.9925785338014 474.7236189359537L1812.9925785338014 474.7236189359537Q1824.1705989858624 474.7236189359537 1830.1547917531275 480.11503789136697Q1836.1389845203926 485.5064568467802 1836.1389845203926 494.8497012145383L1836.1389845203926 494.8497012145383Q1836.1389845203926 497.0796598400757 1835.743801979158 498.29343478815304Q1835.3486194379234 499.5072097362304 1833.7114346242379 499.5072097362304L1833.7114346242379 499.5072097362304L1821.912413035951 499.5072097362304Q1822.731005442794 489.5711915566206 1818.3557701648406 484.17977260120733Q1814.0087622112615 478.7883536457941 1806.0768840621981 478.7883536457941L1806.0768840621981 478.7883536457941Q1794.7012723395196 478.7883536457941 1788.6888522478807 487.3130056067093Q1782.704659480616 495.8658848919984 1782.704659480616 510.4876389176742L1782.704659480616 510.4876389176742Q1782.704659480616 522.0890692353436 1786.4588936223436 531.0089037374933Q1790.213127764071 539.9569655640169 1797.4393228037875 545.1507932488129Q1804.6372905191297 550.316393609235 1814.601536023113 550.316393609235L1814.601536023113 550.316393609235Q1819.8800456810309 550.316393609235 1825.3843739339395 548.7074361199232Q1830.8604748624748 547.0702513062374 1835.743801979158 543.6265177326227L1835.743801979158 543.6265177326227Q1836.1389845203926 543.2031078670143 1836.8728949541137 544.1346095713527Q1837.578578063461 545.0378839513173 1837.1551681978526 545.6588850875429L1837.1551681978526 545.6588850875429Q1829.8442911850148 551.9535784229207 1822.533414172177 554.6916288871881Q1815.222537159339 557.4296793514557 1807.4882502808928 557.4296793514557ZM1825.1867826633224 499.5072097362304L1779.03510731201 499.93061960183877L1778.837516041393 497.277251110693L1825.1867826633224 496.2610674332329L1825.1867826633224 499.5072097362304ZM1855.6722929871253 555.002129455301L1855.6722929871253 555.002129455301Q1855.2488831215169 555.002129455301 1855.2488831215169 553.7883545072236Q1855.2488831215169 552.5745795591463 1855.6722929871253 552.5745795591463L1855.6722929871253 552.5745795591463Q1863.5759438118148 552.5745795591463 1866.1164030054651 549.808301770505Q1868.6568621991155 547.0702513062374 1868.6568621991155 538.5455993453222L1868.6568621991155 538.5455993453222L1868.6568621991155 500.5233934136905Q1868.6568621991155 493.41010767146986 1867.2454959804209 490.07928339535067Q1865.8341297617262 486.72023179485757 1861.966986322503 486.72023179485757L1861.966986322503 486.72023179485757Q1860.3298015088171 486.72023179485757 1858.09984288328 487.42591490420483Q1855.8698842577428 488.13159801355215 1852.8213332253622 489.5711915566206L1852.8213332253622 489.5711915566206Q1852.0027408185192 489.7687828272378 1851.4946489797894 488.6396898522822Q1850.9865571410592 487.53882420170044 1851.607558277285 487.11541433609204L1851.607558277285 487.11541433609204L1878.0283338912473 474.92121020657095Q1878.621107703099 474.7236189359537 1878.8186989737164 474.7236189359537L1878.8186989737164 474.7236189359537Q1879.2421088393248 474.7236189359537 1879.8348826511765 475.23171077468373Q1880.455883787402 475.7398026134138 1880.455883787402 476.3608037496394L1880.455883787402 476.3608037496394Q1880.455883787402 477.9697612389512 1880.2582925167849 484.264454574329Q1880.0607012461678 490.5873752340807 1880.0607012461678 500.32580214307325L1880.0607012461678 500.32580214307325L1880.0607012461678 538.5455993453222Q1880.0607012461678 547.0702513062374 1882.3753418448268 549.808301770505Q1884.7182097678597 552.5745795591463 1892.84767918754 552.5745795591463L1892.84767918754 552.5745795591463Q1893.468680323766 552.5745795591463 1893.468680323766 553.7883545072236Q1893.468680323766 555.002129455301 1892.84767918754 555.002129455301L1892.84767918754 555.002129455301Q1889.2063543433082 555.002129455301 1884.407709199747 554.8045381846837Q1879.637291380559 554.6069469140665 1874.3587817226417 554.6069469140665L1874.3587817226417 554.6069469140665Q1869.0802720647239 554.6069469140665 1864.3098542455364 554.8045381846837Q1859.5112091019746 555.002129455301 1855.6722929871253 555.002129455301ZM1872.7215969089557 450.9562118131371L1872.7215969089557 450.9562118131371Q1868.4592709284984 450.9562118131371 1866.1164030054651 448.6980258632258Q1863.8017624068061 446.46806723768833 1863.8017624068061 442.40333252784797L1863.8017624068061 442.40333252784797Q1863.8017624068061 438.33859781800766 1866.1164030054651 436.1086391924702Q1868.4592709284984 433.87868056693276 1872.7215969089557 433.87868056693276L1872.7215969089557 433.87868056693276Q1876.7863316187959 433.87868056693276 1879.0445175687073 436.1086391924702Q1881.274476194245 438.33859781800766 1881.274476194245 442.40333252784797L1881.274476194245 442.40333252784797Q1881.274476194245 450.9562118131371 1872.7215969089557 450.9562118131371ZM1929.4302915761036 499.93061960183877L1929.4302915761036 499.93061960183877L1928.6116991692606 497.7006609763013Q1936.1483947770898 488.5550078791605 1941.031721893773 483.5587714649817Q1945.8868216860824 478.59076237517684 1949.4434645571928 476.6430769933783Q1953.0001074283032 474.7236189359537 1956.2744770556747 474.7236189359537L1956.2744770556747 474.7236189359537Q1960.536803036132 474.7236189359537 1964.6862197190944 477.1511688321084Q1968.8638637264298 479.6069460526369 1968.8638637264298 483.0506796262517L1968.8638637264298 483.0506796262517Q1968.8638637264298 485.70404811739746 1967.1419969396225 487.53882420170044Q1965.4201301528155 489.34537296162944 1962.1457605254436 489.34537296162944L1962.1457605254436 489.34537296162944Q1959.5206193586719 489.34537296162944 1957.6858432743693 487.7364154723177Q1955.8510671900658 486.09923065863194 1953.8186998351457 484.68786443993736Q1951.7863324802256 483.2482708968689 1948.5401901772284 483.2482708968689L1948.5401901772284 483.2482708968689Q1946.7054140929254 483.2482708968689 1944.6730467380053 484.264454574329Q1942.6406793830852 485.2806382517891 1939.19694580947 488.8372811228994Q1935.7249849114814 492.39392399400975 1929.4302915761036 499.93061960183877ZM1909.5300278925101 555.002129455301L1909.5300278925101 555.002129455301Q1908.9090267562847 555.002129455301 1908.9090267562847 553.7883545072236Q1908.9090267562847 552.5745795591463 1909.5300278925101 552.5745795591463L1909.5300278925101 552.5745795591463Q1917.4336787171997 552.5745795591463 1919.7765466402325 549.808301770505Q1922.1194145632658 547.0702513062374 1922.1194145632658 538.5455993453222L1922.1194145632658 538.5455993453222L1922.1194145632658 498.29343478815304Q1922.1194145632658 491.6035589115408 1920.5951390470755 488.44209858166494Q1919.0708635308856 485.2806382517891 1915.0061288210454 485.2806382517891L1915.0061288210454 485.2806382517891Q1912.9737614661249 485.2806382517891 1910.2357110018575 486.09923065863194Q1907.49766053759 486.9178230654748 1904.0256996396015 488.3291892841694L1904.0256996396015 488.3291892841694Q1903.2071072327585 488.5550078791605 1902.6990153940283 487.53882420170044Q1902.1909235552985 486.52264052424033 1903.0095159621414 486.09923065863194L1903.0095159621414 486.09923065863194L1926.5793318143405 474.92121020657095Q1927.200332950566 474.7236189359537 1927.821334086792 474.7236189359537L1927.821334086792 474.7236189359537Q1929.2327003054866 474.7236189359537 1931.4626589310237 478.9859449164113Q1933.6926175565613 483.2482708968689 1933.6926175565613 491.37774031654965L1933.6926175565613 491.37774031654965L1933.6926175565613 538.5455993453222Q1933.6926175565613 544.2192915444745 1935.1322110996298 547.3807518743503Q1936.5435773183244 550.5422122042262 1940.8059032987821 551.5583958816862Q1945.0964566036132 552.5745795591463 1953.4235172939116 552.5745795591463L1953.4235172939116 552.5745795591463Q1954.2421097007546 552.5745795591463 1954.2421097007546 553.7883545072236Q1954.2421097007546 555.002129455301 1953.4235172939116 555.002129455301L1953.4235172939116 555.002129455301Q1948.5401901772284 555.002129455301 1941.9349962737379 554.8045381846837Q1935.3298023702469 554.6069469140665 1928.018925357409 554.6069469140665L1928.018925357409 554.6069469140665Q1922.7404156994917 554.6069469140665 1917.857088582808 554.8045381846837Q1912.9737614661249 555.002129455301 1909.5300278925101 555.002129455301ZM2055.634658851772 546.2516588993947L2034.7182114907187 556.2159044033783Q2033.8996190838761 556.6393142689867 2033.0810266770332 556.6393142689867L2033.0810266770332 556.6393142689867Q2030.455885510261 556.6393142689867 2028.0001082897325 552.2640789910336Q2025.5725583935778 547.8888437130803 2025.5725583935778 539.5617830227824L2025.5725583935778 539.5617830227824L2025.5725583935778 503.17676190483627Q2025.5725583935778 493.63592626646096 2023.8506916067709 488.3291892841694Q2022.1005974955892 483.0506796262517 2019.1649557607047 481.0183122713315Q2016.2293140258198 478.9859449164113 2012.5597618572137 478.9859449164113L2012.5597618572137 478.9859449164113Q2007.4788434699135 478.9859449164113 2004.2327011669163 481.52640411006155Q2000.9865588639186 484.0668633037118 1999.3493740502327 487.9340067429349Q1997.7121892365471 491.80115018215804 1997.1194154246955 495.66829362138117L1997.1194154246955 495.66829362138117Q1996.921824154078 498.49102605877033 1995.3975486378881 500.9468032792988Q1993.8732731216978 503.3743531754535 1989.5827198168663 503.3743531754535L1989.5827198168663 503.3743531754535Q1986.336577513869 503.3743531754535 1984.501801429566 501.7653956861417Q1982.6952526696368 500.128210872456 1982.6952526696368 497.277251110693L1982.6952526696368 497.277251110693Q1982.6952526696368 493.63592626646096 1986.336577513869 489.6558735297423Q1990.0061296824747 485.70404811739746 1995.5951399085052 482.3449965169044Q2001.1841501345357 478.9859449164113 2007.3659341724178 476.86889558836947Q2013.5759455346742 474.7236189359537 2019.052046463209 474.7236189359537L2019.052046463209 474.7236189359537Q2026.7863333416553 474.7236189359537 2031.8672517289556 480.11503789136697Q2036.9481701162563 485.5064568467802 2036.9481701162563 497.0796598400757L2036.9481701162563 497.0796598400757L2036.9481701162563 533.0412710924134Q2036.9481701162563 540.154556834634 2038.7829462005593 543.4289264620055Q2040.6177222848623 546.6750687650031 2044.6824569947025 546.6750687650031L2044.6824569947025 546.6750687650031Q2048.3237818389343 546.6750687650031 2054.8442937693035 544.0217002738572L2054.8442937693035 544.0217002738572Q2055.8604774467635 543.6265177326227 2056.255659987998 544.7273833832045Q2056.6508425292327 545.8564763581601 2055.634658851772 546.2516588993947L2055.634658851772 546.2516588993947ZM1994.8894567991579 556.4134956739956L1994.8894567991579 556.4134956739956Q1988.3689448687892 556.4134956739956 1985.1228025657915 552.8568528028852Q1981.8766602627938 549.3002099317748 1981.8766602627938 544.6427014100829L1981.8766602627938 544.6427014100829Q1981.8766602627938 538.9407818865568 1986.336577513869 535.5817302860637Q1990.8247220893177 532.2509060099444 2000.9865588639186 528.7789451119559L2000.9865588639186 528.7789451119559L2027.6049257484983 519.2381094735805L2028.19769956035 521.468068099118L2004.6278837081504 530.4161299256416Q1999.9703751864586 532.2509060099444 1998.0226898046599 534.4808646354819Q1996.1032317472354 536.7108232610193 1996.1032317472354 540.154556834634L1996.1032317472354 540.154556834634Q1996.1032317472354 544.4451101394656 1998.5307816433897 546.7597507381247Q2000.9865588639186 549.1026186611576 2004.8254749787675 549.1026186611576L2004.8254749787675 549.1026186611576Q2007.083660928679 549.1026186611576 2009.116028283599 548.5945268224276Q2011.1483956385196 548.0864349836976 2013.1807629934397 547.0702513062374L2013.1807629934397 547.0702513062374L2030.455885510261 538.348008074705L2030.851068051496 540.7755579708597L2013.1807629934397 550.316393609235Q2007.083660928679 553.3649446416152 2003.0189262188387 554.8892201578054Q1998.9541915089985 556.4134956739956 1994.8894567991579 556.4134956739956Z " fill="#336699" transform="matrix(0.42550783744021575,0,0,0.42550783744021575,0,94.626295835953)"/></g></svg>