<svg xmlns="http://www.w3.org/2000/svg" version="1.1" xmlns:xlink="http://www.w3.org/1999/xlink" xmlns:svgjs="http://svgjs.dev/svgjs" width="100%" height="100%" viewBox="0 0 1000 600"><rect width="1000" height="600" x="0" y="0" fill="#ffffff"/><g><circle r="166.66666666666666" cx="424.39237467447913" cy="446.61460819288493" fill="#336699" transform="matrix(0.4850117420378288,0,0,0.4850117420378288,0,83.38666908003668)"/><path d="M362.94503912436136 487.42821863752886L362.94503912436136 487.42821863752886L362.94503912436136 406.3457327160578Q362.94503912436136 399.4202612697901 361.4406295967077 396.4633184050915Q359.93622006905406 393.506375540393 355.26736291426687 393.506375540393L355.26736291426687 393.506375540393L355.26736291426687 387.670304096909L393.5779296788263 371.61462310350186L396.5867487341336 377.63226121411645Q392.4885296760426 377.63226121411645 388.7534439522129 382.45674694072994L388.7534439522129 382.45674694072994Q385.3555534673399 387.02185171429966 385.3555534673399 396.59300888161334L385.3555534673399 396.59300888161334L385.3555534673399 473.0066376482972Q385.3555534673399 488.05073292483377 387.9234249024729 490.98173769422795L387.9234249024729 490.98173769422795Q392.38477729482514 496.5324900893639 396.7683154012642 497.62189009214757L396.7683154012642 497.62189009214757Q406.4432249497955 499.9044424789324 418.55631545693785 499.9044424789324L418.55631545693785 499.9044424789324L418.55631545693785 505.11799963511146Q393.9410630130875 515.5969901380782 390.2837915751709 515.5969901380782L390.2837915751709 515.5969901380782Q386.73027251847174 515.5969901380782 380.89420107498773 512.4844187015535L380.89420107498773 512.4844187015535Q376.87379630280986 510.4093710772036 372.74963914941446 506.6224091627651Q368.59954390071476 502.8354472483266 365.77229151253806 497.85533294988693Q362.94503912436136 492.9011567467516 362.94503912436136 487.42821863752886ZM454.11744411923365 384.6614850416017L454.11744411923365 384.6614850416017Q474.7382298862105 372.1593231048937 477.6432965603003 372.1593231048937L477.6432965603003 372.1593231048937Q479.12176799264955 372.1593231048937 481.7155775230869 374.3121850151567Q484.30938705352423 376.43910883011534 487.03288706048346 379.81106121968384Q489.782325162747 383.1830136092524 491.6498680246619 386.89216123777777Q493.5174108865768 390.57537077099875 493.5174108865768 393.6879422075236L493.5174108865768 393.6879422075236L493.5174108865768 451.76333759401547Q493.5174108865768 452.41178997662485 489.26356325665955 454.4090233150616Q485.0356537220467 456.4062566534983 478.6548822771709 459.02600427924Q472.274110832295 461.61981380967734 465.60802033907106 464.0320566729841Q458.9678679411515 466.4442995362908 454.11744411923365 468.0005852545532L454.11744411923365 468.0005852545532L454.11744411923365 486.88351863613696Q454.11744411923365 493.7052377011872 455.56997745627854 496.7140567564945Q457.04844888862783 499.7228758118018 461.7951203293282 499.7228758118018L461.7951203293282 499.7228758118018L461.7951203293282 505.48113296937265L423.48455356476876 521.614628248693L420.47573450946146 515.5969901380782Q424.57395356755245 515.5969901380782 428.3090392913822 510.77250441146487L428.3090392913822 510.77250441146487Q431.68099168095074 506.20739963789515 431.68099168095074 496.5324900893639L431.68099168095074 496.5324900893639L431.68099168095074 399.78339460405135Q431.68099168095074 388.3965707654314 424.0292535661606 386.9180993330821L424.0292535661606 386.9180993330821L424.0292535661606 382.81988027499114L442.9121869477444 372.1593231048937Q446.6472726715741 373.71560882315606 450.3823583954039 377.63226121411645Q454.11744411923365 381.54891360507685 454.11744411923365 384.6614850416017ZM461.40604889976254 390.10848505552L461.40604889976254 390.10848505552Q458.1378488914115 390.10848505552 454.11744411923365 392.85792315778366L454.11744411923365 392.85792315778366L454.11744411923365 459.233509041675Q457.4115822228891 459.233509041675 461.3282346138495 457.7809757046301Q465.2448870048098 456.3284423675852 468.0721393929865 454.0977661714091Q470.8993917811632 451.86708997523294 470.8993917811632 449.66235187436126L470.8993917811632 449.66235187436126L470.8993917811632 403.8816136621423Q470.8993917811632 390.10848505552 461.40604889976254 390.10848505552Z " fill="#66dd33" transform="matrix(0.4850117420378288,0,0,0.4850117420378288,0,83.38666908003668)"/><path d="M681.8923857055079 488.21935076109094L681.8923857055079 488.21935076109094L681.8923857055079 409.01327070077747Q681.8923857055079 402.2480680852612 680.4227911298527 399.3595546089734Q678.9531965541975 396.47104113268557 674.3923858021641 396.47104113268557L674.3923858021641 396.47104113268557L674.3923858021641 390.77002769264385L711.8163718063493 375.0859062731512L714.7555609576597 380.964284575772Q710.7521826308748 380.964284575772 707.1035340292481 385.6771223528732L707.1035340292481 385.6771223528732Q703.7842773152682 390.1365817548614 703.7842773152682 399.4862437965299L703.7842773152682 399.4862437965299L703.7842773152682 474.1315131048099Q703.7842773152682 488.827458861362 706.2927232288865 491.6906345001386L706.2927232288865 491.6906345001386Q710.6508312808296 497.11293172755603 714.9329258202387 498.1771209030305L714.9329258202387 498.1771209030305Q724.3839392119525 500.4068506040246 736.2167093297279 500.4068506040246L736.2167093297279 500.4068506040246L736.2167093297279 505.4997559437952Q712.1711015315074 515.7362422983591 708.5984664424146 515.7362422983591L708.5984664424146 515.7362422983591Q705.1271827033669 515.7362422983591 699.4261692633252 512.6957017970035L699.4261692633252 512.6957017970035Q695.4988044490741 510.66867479609976 691.470088284778 506.9693505194505Q687.4160342829706 503.2700262428011 684.6542099942392 498.4051614406321Q681.8923857055079 493.5656344759745 681.8923857055079 488.21935076109094ZM793.6829248053489 411.7750949895088L793.6829248053489 411.7750949895088Q794.6457626307781 411.7750949895088 798.218397719871 414.53691927824013L798.218397719871 414.53691927824013Q801.8670463214977 417.29874356697144 805.5156949231244 422.3916489067421Q809.1643435247512 427.45921640900144 809.1643435247512 432.1720541861026L809.1643435247512 432.1720541861026L809.1643435247512 462.83083757477164Q809.1643435247512 466.12475645124016 799.5613031079697 470.83759422834135L799.5613031079697 470.83759422834135Q794.6457626307781 473.24468879191454 788.4126546029992 475.72779686802164Q782.1795465752201 478.23624278164 777.1879925854947 479.9338778948969Q772.1964385957692 481.6315130081538 771.0562359077609 481.6315130081538L771.0562359077609 481.6315130081538Q771.0562359077609 495.5926614768782 783.2437357506947 498.987931703392L783.2437357506947 498.987931703392Q789.0461005407816 500.4068506040246 797.6863031321337 500.4068506040246L797.6863031321337 500.4068506040246L797.6863031321337 505.6771208063743Q767.6609656812471 515.7362422983591 765.7099521928773 515.7362422983591L765.7099521928773 515.7362422983591Q762.1373171037845 515.7362422983591 758.2099522895335 512.138269371755Q754.3079253127938 508.5149586076395 751.6221145365963 502.6365803050187Q748.9616415979102 496.75820200239787 748.9616415979102 489.8156345243026L748.9616415979102 489.8156345243026L748.9616415979102 428.5234055844759Q748.9616415979102 427.99131099673866 753.0917091122516 426.1669866959253Q757.2471144641042 424.3426623951119 763.4802224918832 421.9355678315388Q769.7133305196622 419.5284732679656 776.1744790850429 417.172054379415Q782.6356276504235 414.8156354908644 787.5258302901037 413.2953652401866Q792.416032929784 411.7750949895088 793.6829248053489 411.7750949895088ZM787.2724519149908 453.7345539082161L787.2724519149908 440.7362432649209Q787.2724519149908 435.74468927519547 784.9413708639515 432.0960406735687L784.9413708639515 432.0960406735687Q782.5342763003783 428.5234055844759 778.834952023729 428.5234055844759Q775.1356277470796 428.5234055844759 770.8788710451819 431.28522987320724L770.8788710451819 431.28522987320724L770.8788710451819 473.42205365449365Q787.2724519149908 468.8865807399716 787.2724519149908 453.7345539082161L787.2724519149908 453.7345539082161ZM826.4447487074555 489.10617507398626L826.4447487074555 489.10617507398626L826.4447487074555 428.5234055844759Q826.4447487074555 427.99131099673866 830.6001540593081 426.1669866959253Q834.7302215736495 424.3426623951119 840.9886674389398 421.9355678315388Q847.2217754667188 419.5284732679656 853.6575861945881 417.172054379415Q860.1187347599688 414.8156354908644 865.0342752371604 413.2953652401866Q869.9244778768406 411.7750949895088 871.1660319148941 411.7750949895088L871.1660319148941 411.7750949895088Q872.7876535156171 411.7750949895088 875.3721129417694 413.8781355029464Q877.9312345304103 415.95583817887274 880.5663696315852 419.2750948928526Q883.2015047327601 422.56901376932115 885.0258290335735 426.1669866959253Q886.8501533343868 429.76495962252943 886.8501533343868 432.70414877383985L886.8501533343868 432.70414877383985L886.8501533343868 498.81056684081295Q886.8501533343868 499.3426614285502 882.8974506826245 501.2176614043861Q878.9194101933509 503.09266138022207 872.9650183781962 505.5250937813065Q866.9852887255302 507.9828640199023 860.6254915101947 510.3139450709416Q854.240356457348 512.6196882844696 849.2234646301112 514.1652963726588Q844.1812349653632 515.7362422983591 842.4075863395724 515.7362422983591L842.4075863395724 515.7362422983591Q839.468397188262 515.7362422983591 835.71839723659 512.138269371755Q831.9683972849182 508.5149586076395 829.2065729961868 502.45921544243964Q826.4447487074555 496.40347227723976 826.4447487074555 489.10617507398626ZM857.6356266838617 498.987931703392L857.6356266838617 498.987931703392Q861.2082617729545 498.987931703392 864.7555590245361 496.0487425520816L864.7555590245361 496.0487425520816L864.7555590245361 442.2565135155987Q864.7555590245361 428.700770447055 855.5072483329128 428.700770447055L855.5072483329128 428.700770447055Q851.7572483812409 428.700770447055 848.3619781547271 431.4625947357863L848.3619781547271 431.4625947357863L848.3619781547271 485.4575264723596Q848.3619781547271 498.987931703392 857.6356266838617 498.987931703392ZM905.0173828299866 503.346039755335L905.0173828299866 503.346039755335L905.0173828299866 441.4457027152372Q905.0173828299866 435.4659730625712 902.4835990788569 431.1078650106282Q899.9498153277272 426.7497569586851 896.1238018635214 426.7497569586851L896.1238018635214 426.7497569586851L896.1238018635214 422.74637863190026Q897.3653559015748 422.467662419276 915.988666472378 411.5977301269297L915.988666472378 411.5977301269297Q916.6981259226943 411.7750949895088 917.4835988855444 412.0031355271105Q918.294409685906 412.23117606471214 919.1812339988013 412.58590578987025L919.1812339988013 412.58590578987025Q920.9802204621034 413.2193517276527 923.9447474509251 416.1585408789631Q926.9346122772581 419.0977300302735 926.9346122772581 422.9237434944793L926.9346122772581 422.9237434944793Q928.2775176653569 422.11293269411783 933.1677203050372 419.4524597554317L933.1677203050372 419.4524597554317Q946.7234633735808 411.7750949895088 949.2065714496879 411.7750949895088L949.2065714496879 411.7750949895088Q953.133936263939 411.7750949895088 956.8332605405882 415.4237435911355Q960.5072469797262 419.0977300302735 962.8890037057881 424.1146218575103Q965.2454225943387 429.1568515222583 965.2454225943387 433.4389460616675L965.2454225943387 433.4389460616675L965.2454225943387 488.75144534882816Q965.2454225943387 498.81056684081295 974.2403549108491 500.58421546660367L974.2403549108491 500.58421546660367L974.2403549108491 504.6129316308999L954.2741389519473 515.7362422983591Q950.2707606251624 514.1399585351475 946.7994768861148 510.3899585834755Q943.328193147067 506.63995863180355 943.328193147067 503.346039755335L943.328193147067 503.346039755335L943.328193147067 450.44063503174755Q943.328193147067 440.2041486771837 941.0477877710504 434.8071892872775Q938.7927202325451 429.41022989737127 932.990355442458 429.41022989737127L932.990355442458 429.41022989737127L926.9346122772581 430.5757704228909L926.9346122772581 488.75144534882816Q926.9346122772581 499.7987425037535 934.4092743430907 501.29367491692L934.4092743430907 501.29367491692L934.4092743430907 505.3223910812162L915.988666472378 515.7362422983591Q911.9599503080818 514.1399585351475 908.4886665690342 510.3899585834755Q905.0173828299866 506.63995863180355 905.0173828299866 503.346039755335ZM1039.9667054151528 435.8207027877294L1039.9667054151528 435.8207027877294L1039.9667054151528 487.5098913107746Q1039.9667054151528 494.1737425762456 1042.1710972786354 496.8595533524431Q1044.3501513046072 499.5200262911292 1048.885624219129 500.58421546660367L1048.885624219129 500.58421546660367L1048.885624219129 504.6129316308999L1029.0207596102723 515.7362422983591Q1025.0173812834878 514.1399585351475 1021.5460975444399 510.3899585834755Q1018.0748138053924 506.63995863180355 1018.0748138053924 503.52340461791414L1018.0748138053924 503.52340461791414L995.2707600452253 515.7362422983591Q994.9920438326011 515.55887743578 994.5866384324203 515.3308368981784Q994.1812330322396 515.1027963605767 993.6491384445023 514.7480666354186L993.6491384445023 514.7480666354186Q992.508935756494 514.1399585351475 989.8738006553191 511.98624234668716Q987.2386655541443 509.8578639957383 985.1863007157293 507.5521207822103L985.1863007157293 507.5521207822103Q979.7640034883117 501.57239112954426 979.7640034883117 493.81901285108745L979.7640034883117 493.81901285108745L979.7640034883117 463.8950267502461Q979.7640034883117 461.9440132618762 984.2488007278113 459.1821889731449Q988.758935804822 456.4203646844136 995.3467735577592 453.6585403956822Q1001.9346113106964 450.89671610695086 1008.1677193384754 448.92036478106974L1008.1677193384754 448.92036478106974L1017.8974489428132 445.9051621172254Q1017.8974489428132 438.96259463913015 1015.566367891774 434.9085406373227Q1013.260624678246 430.8544866355152 1007.5089355631816 429.0555001722131Q1001.7572464481174 427.2818515464224 991.2420438809291 427.2818515464224L991.2420438809291 427.2818515464224L991.2420438809291 421.75820296895967Q1019.3163678434458 411.7750949895088 1022.9650164450726 411.7750949895088L1022.9650164450726 411.7750949895088Q1027.0697461219029 411.7750949895088 1030.9464352611312 415.4744192661581Q1034.8231244003596 419.1737435428074 1037.3822459890002 424.6973921202701Q1039.9667054151528 430.2210406977328 1039.9667054151528 435.8207027877294ZM1001.6812329355835 475.3730671428635L1001.6812329355835 487.3325264481955Q1001.6812329355835 491.94401287525153 1004.5190707368486 494.9845533766071L1004.5190707368486 494.9845533766071Q1007.3822463756252 497.9997560404514 1010.8535301146727 497.9744182029401Q1014.3248138537205 497.9237425279175 1018.0748138053924 495.33928310176526L1018.0748138053924 495.33928310176526L1018.0748138053924 454.0892836333743Q1013.5140030533589 455.68556739658595 1011.2589355148535 456.800432247083Q1008.9785301388368 457.91529709758004 1006.3940707126845 460.2463781486193L1006.3940707126845 460.2463781486193Q1001.6812329355835 464.70583755060755 1001.6812329355835 475.3730671428635L1001.6812329355835 475.3730671428635ZM1049.240353944287 426.7497569586851L1049.240353944287 426.7497569586851L1049.240353944287 422.74637863190026L1069.282583415723 411.7750949895088Q1069.9920428660394 411.9524598520879 1070.7521779913782 412.18050038968954Q1071.512313116717 412.4085409272912 1072.3991374296124 412.76327065244936L1072.3991374296124 412.76327065244936Q1074.1727860554033 413.3967165902318 1077.1119752067139 416.3359057415422Q1080.051164358024 419.2750948928526 1080.051164358024 422.9237434944793L1080.051164358024 422.9237434944793Q1080.6846102958066 422.64502728185505 1088.691366949376 417.1213787043924L1088.691366949376 417.1213787043924Q1096.4447452278332 411.7750949895088 1098.6744749288273 411.7750949895088L1098.6744749288273 411.7750949895088Q1102.601839743078 411.7750949895088 1106.3011640197274 415.4237435911355Q1110.0004882963767 419.0977300302735 1112.3569071849274 424.1146218575103Q1114.7133260734781 429.1568515222583 1114.7133260734781 433.4389460616675L1114.7133260734781 433.4389460616675L1114.7133260734781 442.4338783781778L1095.9126506400958 452.92374310785465L1092.7960966262062 450.44063503174755Q1092.7960966262062 435.21259468745825 1089.958258824941 432.8815136364189L1089.958258824941 432.8815136364189Q1086.5629885984272 430.5757704228909 1080.051164358024 430.5757704228909L1080.051164358024 430.5757704228909L1080.051164358024 488.75144534882816Q1080.051164358024 499.7987425037535 1087.5511642613678 501.29367491692L1087.5511642613678 501.29367491692L1087.5511642613678 505.3223910812162L1069.105218553144 515.7362422983591Q1065.101840226359 514.1399585351475 1061.6305564873114 510.3899585834755Q1058.159272748264 506.63995863180355 1058.159272748264 503.346039755335L1058.159272748264 503.346039755335L1058.159272748264 442.78860810333595Q1058.159272748264 434.7565136122549 1055.34677278451 430.75313528547Q1052.5342728207556 426.7497569586851 1049.240353944287 426.7497569586851ZM1161.7403524944448 375.26327113573024L1161.7403524944448 375.26327113573024Q1163.7167038203256 375.26327113573024 1166.909271346749 379.9000954002975Q1170.1271767106837 384.51158182735355 1173.7251496372878 391.7328655180731Q1177.3484604014034 398.95414920879267 1180.5410279278267 406.93556802485114Q1183.7589332917614 414.8916490033983 1185.785960292665 421.7075272939371Q1187.8383251310802 428.5234055844759 1187.8383251310802 432.1720541861026L1187.8383251310802 432.1720541861026L1187.8383251310802 487.86462103593277Q1187.8383251310802 492.0453642252967 1190.1187305070966 496.0487425520816Q1192.3991358831136 500.05212087886645 1196.5798790724775 500.58421546660367L1196.5798790724775 500.58421546660367L1196.5798790724775 504.6129316308999Q1195.338325034424 504.79029649347893 1176.7150144636207 515.7362422983591L1176.7150144636207 515.7362422983591Q1172.5342712742572 513.9625936725683 1169.139001047743 510.3899585834755Q1165.7437308212293 506.81732349438266 1165.7437308212293 503.7007694804932L1165.7437308212293 503.7007694804932Q1146.2589337750424 515.7362422983591 1142.9396770610624 515.7362422983591L1142.9396770610624 515.7362422983591Q1141.7994743730542 515.7362422983591 1138.1508257714272 512.8730666595826L1138.1508257714272 512.8730666595826Q1134.5781906823345 510.0352288583174 1131.0055555932418 504.6889451434338Q1127.45825834166 499.3426614285502 1127.45825834166 493.6416479885084L1127.45825834166 493.6416479885084L1127.45825834166 428.5234055844759Q1127.45825834166 426.7497569586851 1158.2690687553968 415.95583817887274L1158.2690687553968 415.95583817887274Q1151.782582352505 401.715973497524 1147.6778526756748 395.6602303323241L1147.6778526756748 395.6602303323241Q1143.6744743488903 389.85786554223716 1139.8231230471729 389.85786554223716L1139.8231230471729 389.85786554223716L1133.868731232018 389.85786554223716L1133.868731232018 384.3342169647745Q1154.0883255660328 375.26327113573024 1161.7403524944448 375.26327113573024ZM1158.6237984805553 498.987931703392L1158.6237984805553 498.987931703392Q1162.196433569648 498.987931703392 1165.7437308212293 496.0487425520816L1165.7437308212293 496.0487425520816L1165.7437308212293 432.5267839112608Q1165.7437308212293 431.81732446094446 1165.008933533402 429.81563529755203Q1164.248798408063 427.8139461341596 1163.3619740951676 426.0909731833914Q1162.4498119447608 424.3426623951119 1161.9177173570238 424.3426623951119L1161.9177173570238 424.3426623951119Q1156.5714336421402 424.3426623951119 1151.1491364147228 427.6365812715805L1151.1491364147228 427.6365812715805L1149.3754877889319 428.700770447055L1149.3754877889319 485.4575264723596Q1149.3754877889319 498.987931703392 1158.6237984805553 498.987931703392ZM1205.8535276016123 489.10617507398626L1205.8535276016123 489.10617507398626L1205.8535276016123 428.5234055844759Q1205.8535276016123 427.99131099673866 1209.9835951159534 426.1669866959253Q1214.113662630295 424.3426623951119 1220.372108495585 421.9355678315388Q1226.605216523364 419.5284732679656 1233.066365088745 417.172054379415Q1239.502175816614 414.8156354908644 1244.4177162938058 413.2953652401866Q1249.3079189334862 411.7750949895088 1250.5494729715397 411.7750949895088L1250.5494729715397 411.7750949895088Q1252.1710945722625 411.7750949895088 1254.7555539984146 413.8781355029464Q1257.3400134245671 415.95583817887274 1259.9498106882306 419.2750948928526Q1262.5849457894055 422.56901376932115 1264.4092700902188 426.1669866959253Q1266.233594391032 429.76495962252943 1266.233594391032 432.70414877383985L1266.233594391032 432.70414877383985L1266.233594391032 498.81056684081295Q1266.233594391032 499.3426614285502 1262.28089173927 501.2176614043861Q1258.3028512499964 503.09266138022207 1252.3484594348415 505.5250937813065Q1246.3687297821757 507.9828640199023 1240.00893256684 510.3139450709416Q1233.6237975139934 512.6196882844696 1228.6069056867568 514.1652963726588Q1223.5646760220084 515.7362422983591 1221.791027396218 515.7362422983591L1221.791027396218 515.7362422983591Q1218.8518382449074 515.7362422983591 1215.1018382932352 512.138269371755Q1211.3518383415635 508.5149586076395 1208.590014052832 502.45921544243964Q1205.8535276016123 496.40347227723976 1205.8535276016123 489.10617507398626ZM1237.0190677405071 498.987931703392L1237.0190677405071 498.987931703392Q1240.5917028295999 498.987931703392 1244.1390000811816 496.0487425520816L1244.1390000811816 496.0487425520816L1244.1390000811816 442.2565135155987Q1244.1390000811816 428.700770447055 1234.8906893895582 428.700770447055L1234.8906893895582 428.700770447055Q1231.140689437886 428.700770447055 1227.7454192113723 431.4625947357863L1227.7454192113723 431.4625947357863L1227.7454192113723 485.4575264723596Q1227.7454192113723 498.987931703392 1237.0190677405071 498.987931703392ZM1353.8011608300735 387.83083854133343L1353.8011608300735 387.83083854133343Q1373.919403814043 375.6180008608884 1376.7825794528194 375.6180008608884L1376.7825794528194 375.6180008608884Q1378.2014983534518 375.6180008608884 1380.7352821045815 377.72104137432603Q1383.2944036932226 379.79874405025237 1385.954876631909 383.09266292672095Q1388.6406874081063 386.38658180318953 1390.4650117089195 390.0098925673049Q1392.2893360097332 393.60786549390906 1392.2893360097332 396.6484059952647L1392.2893360097332 396.6484059952647L1392.2893360097332 453.37982418305796Q1392.2893360097332 454.0132701208404 1388.1339306578807 455.9642836092102Q1384.003863143539 457.91529709758004 1377.77075511576 460.47441868622104Q1371.537647087981 463.0082024373507 1365.0258228475777 465.36462132590134Q1358.5139986071745 467.7210402144519 1353.8011608300735 469.2413104651297L1353.8011608300735 469.2413104651297L1353.8011608300735 487.68725617335366Q1353.8011608300735 494.35110743882467 1355.220079730706 497.2902965901351Q1356.6389986313388 500.2294857414455 1361.275822895906 500.2294857414455L1361.275822895906 500.2294857414455L1361.275822895906 505.85448566895343L1323.8771747292321 521.61462060098L1320.9379855779216 515.7362422983591Q1324.9413639047066 515.7362422983591 1328.590012506333 511.02340452125793L1328.590012506333 511.02340452125793Q1331.8839313828016 506.5639451192697 1331.8839313828016 497.11293172755603L1331.8839313828016 497.11293172755603L1331.8839313828016 402.6027978104194Q1331.8839313828016 391.4794871429601 1324.4092693169691 390.0352304048162L1324.4092693169691 390.0352304048162L1324.4092693169691 386.03185207803136L1342.855215025193 375.6180008608884Q1346.50386362682 377.1382711115662 1350.1525122284465 380.964284575772Q1353.8011608300735 384.7902980399778 1353.8011608300735 387.83083854133343ZM1360.9210931707476 393.15178441870574L1360.9210931707476 393.15178441870574Q1357.7285256443242 393.15178441870574 1353.8011608300735 395.83759519490314L1353.8011608300735 395.83759519490314L1353.8011608300735 460.6771213863114Q1357.0190661940082 460.6771213863114 1360.8450796582138 459.2582024856788Q1364.6710931224197 457.8392835850462 1367.4329174111508 455.66022955907465Q1370.1947416998823 453.48117553310317 1370.1947416998823 451.32745934464293L1370.1947416998823 451.32745934464293L1370.1947416998823 406.6061761372043Q1370.1947416998823 393.15178441870574 1360.9210931707476 393.15178441870574ZM1453.3028487369356 411.7750949895088L1453.3028487369356 411.7750949895088Q1454.2910243998763 411.7750949895088 1457.8383216514576 414.53691927824013L1457.8383216514576 414.53691927824013Q1461.486970253084 417.29874356697144 1465.135618854711 422.3916489067421Q1468.809605293849 427.45921640900144 1468.809605293849 432.1720541861026L1468.809605293849 432.1720541861026L1468.809605293849 462.83083757477164Q1468.809605293849 466.12475645124016 1459.1812270395562 470.83759422834135L1459.1812270395562 470.83759422834135Q1454.2910243998763 473.24468879191454 1448.0325785345858 475.72779686802164Q1441.7994705068068 478.23624278164 1436.8332543545926 479.9338778948969Q1431.8417003648674 481.6315130081538 1430.6761598393477 481.6315130081538L1430.6761598393477 481.6315130081538Q1430.6761598393477 495.5926614768782 1442.8889975197926 498.987931703392L1442.8889975197926 498.987931703392Q1448.666024472368 500.4068506040246 1457.3062270637201 500.4068506040246L1457.3062270637201 500.4068506040246L1457.3062270637201 505.6771208063743Q1427.2808896128336 515.7362422983591 1425.3298761244641 515.7362422983591L1425.3298761244641 515.7362422983591Q1421.757241035371 515.7362422983591 1417.8552140586316 512.138269371755Q1413.9278492443805 508.5149586076395 1411.2673763056941 502.6365803050187Q1408.5815655294969 496.75820200239787 1408.5815655294969 489.8156345243026L1408.5815655294969 489.8156345243026L1408.5815655294969 428.5234055844759Q1408.5815655294969 427.99131099673866 1412.7369708813494 426.1669866959253Q1416.867038395691 424.3426623951119 1423.10014642347 421.9355678315388Q1429.3332544512486 419.5284732679656 1435.7944030166295 417.172054379415Q1442.25555158201 414.8156354908644 1447.1457542216904 413.2953652401866Q1452.0612946988822 411.7750949895088 1453.3028487369356 411.7750949895088ZM1446.8923758465776 453.7345539082161L1446.8923758465776 440.7362432649209Q1446.8923758465776 435.74468927519547 1444.5612947955383 432.0960406735687L1444.5612947955383 432.0960406735687Q1442.1542002319648 428.5234055844759 1438.4802137928268 428.5234055844759Q1434.7808895161775 428.5234055844759 1430.4987949767687 431.28522987320724L1430.4987949767687 431.28522987320724L1430.4987949767687 473.42205365449365Q1446.8923758465776 468.8865807399716 1446.8923758465776 453.7345539082161L1446.8923758465776 453.7345539082161ZM1477.171091672577 426.7497569586851L1477.171091672577 426.7497569586851L1477.171091672577 422.74637863190026L1497.2133211440128 411.7750949895088Q1497.9227805943287 411.9524598520879 1498.682915719668 412.18050038968954Q1499.4430508450068 412.4085409272912 1500.3298751579023 412.76327065244936L1500.3298751579023 412.76327065244936Q1502.1035237836932 413.3967165902318 1505.0427129350032 416.3359057415422Q1508.0072399238252 419.2750948928526 1508.0072399238252 422.9237434944793L1508.0072399238252 422.9237434944793Q1508.6153480240964 422.64502728185505 1516.6474425151773 417.1213787043924L1516.6474425151773 417.1213787043924Q1524.3754829561226 411.7750949895088 1526.6052126571171 411.7750949895088L1526.6052126571171 411.7750949895088Q1530.5325774713679 411.7750949895088 1534.2319017480172 415.4237435911355Q1537.9312260246666 419.0977300302735 1540.2876449132173 424.1146218575103Q1542.6440638017675 429.1568515222583 1542.6440638017675 433.4389460616675L1542.6440638017675 433.4389460616675L1542.6440638017675 442.4338783781778L1523.8433883683856 452.92374310785465L1520.726834354496 450.44063503174755Q1520.726834354496 435.21259468745825 1517.8889965532308 432.8815136364189L1517.8889965532308 432.8815136364189Q1514.493726326717 430.5757704228909 1508.0072399238252 430.5757704228909L1508.0072399238252 430.5757704228909L1508.0072399238252 488.75144534882816Q1508.0072399238252 499.7987425037535 1515.4819019896577 501.29367491692L1515.4819019896577 501.29367491692L1515.4819019896577 505.3223910812162L1497.0359562814338 515.7362422983591Q1493.0325779546488 514.1399585351475 1489.5612942156013 510.3899585834755Q1486.0900104765533 506.63995863180355 1486.0900104765533 503.346039755335L1486.0900104765533 503.346039755335L1486.0900104765533 442.78860810333595Q1486.0900104765533 434.7565136122549 1483.2775105127994 430.75313528547Q1480.4650105490455 426.7497569586851 1477.171091672577 426.7497569586851ZM1600.1102792773886 411.7750949895088L1600.1102792773886 411.7750949895088Q1601.0731171028178 411.7750949895088 1604.6457521919106 414.53691927824013L1604.6457521919106 414.53691927824013Q1608.294400793537 417.29874356697144 1611.943049395164 422.3916489067421Q1615.5916979967906 427.45921640900144 1615.5916979967906 432.1720541861026L1615.5916979967906 432.1720541861026L1615.5916979967906 462.83083757477164Q1615.5916979967906 466.12475645124016 1605.9886575800092 470.83759422834135L1605.9886575800092 470.83759422834135Q1601.0731171028178 473.24468879191454 1594.8400090750388 475.72779686802164Q1588.6069010472597 478.23624278164 1583.6153470575346 479.9338778948969Q1578.623793067809 481.6315130081538 1577.4835903798007 481.6315130081538L1577.4835903798007 481.6315130081538Q1577.4835903798007 495.5926614768782 1589.6710902227342 498.987931703392L1589.6710902227342 498.987931703392Q1595.473455012821 500.4068506040246 1604.1136576041736 500.4068506040246L1604.1136576041736 500.4068506040246L1604.1136576041736 505.6771208063743Q1574.088320153287 515.7362422983591 1572.137306664917 515.7362422983591L1572.137306664917 515.7362422983591Q1568.564671575824 515.7362422983591 1564.6373067615732 512.138269371755Q1560.7352797848334 508.5149586076395 1558.0494690086362 502.6365803050187Q1555.3889960699498 496.75820200239787 1555.3889960699498 489.8156345243026L1555.3889960699498 489.8156345243026L1555.3889960699498 428.5234055844759Q1555.3889960699498 427.99131099673866 1559.5190635842914 426.1669866959253Q1563.674468936144 424.3426623951119 1569.907576963923 421.9355678315388Q1576.1406849917016 419.5284732679656 1582.6018335570825 417.172054379415Q1589.0629821224634 414.8156354908644 1593.9531847621433 413.2953652401866Q1598.8433874018237 411.7750949895088 1600.1102792773886 411.7750949895088ZM1593.6998063870305 453.7345539082161L1593.6998063870305 440.7362432649209Q1593.6998063870305 435.74468927519547 1591.3687253359913 432.0960406735687L1591.3687253359913 432.0960406735687Q1588.9616307724182 428.5234055844759 1585.2623064957688 428.5234055844759Q1581.5629822191195 428.5234055844759 1577.3062255172217 431.28522987320724L1577.3062255172217 431.28522987320724L1577.3062255172217 473.42205365449365Q1593.6998063870305 468.8865807399716 1593.6998063870305 453.7345539082161L1593.6998063870305 453.7345539082161ZM1630.1102788907638 388.9710412293418L1630.1102788907638 388.9710412293418L1630.1102788907638 377.84773056188254Q1630.1102788907638 377.5690143492582 1632.3906842667807 376.606176523829Q1634.6710896427971 375.6180008608884 1637.7369679816638 374.45246033536876Q1640.802846320531 373.3122576473604 1643.3366300716607 372.4507711719763Q1645.8957516603018 371.6146225341035 1646.503859760573 371.6146225341035L1646.503859760573 371.6146225341035Q1647.770751636138 371.6146225341035 1649.9751434996206 374.731176547993Q1652.2048732006147 377.84773056188254 1652.2048732006147 381.14164943835107L1652.2048732006147 381.14164943835107L1652.2048732006147 394.41867629427054Q1652.2048732006147 394.6720546693835 1650.025819174643 395.6602303323241Q1647.8467651486712 396.6484059952647 1644.9075759973612 397.788608683273Q1641.9683868460506 398.95414920879267 1639.3839274198986 399.79029784666545Q1636.799467993746 400.65178432204954 1635.9886571933848 400.65178432204954L1635.9886571933848 400.65178432204954Q1633.860278842436 400.65178432204954 1631.9852788665999 397.0031357204228Q1630.1102788907638 393.3544871187961 1630.1102788907638 388.9710412293418ZM1654.7893326267667 424.16529753253286L1654.7893326267667 424.16529753253286L1654.7893326267667 488.75144534882816Q1654.7893326267667 499.7987425037535 1662.2893325301106 501.29367491692L1662.2893325301106 501.29367491692L1662.2893325301106 505.3223910812162L1643.8433868218867 515.7362422983591Q1639.8400084951018 514.1399585351475 1636.3687247560542 510.3899585834755Q1632.8721031794953 506.63995863180355 1632.8721031794953 503.346039755335L1632.8721031794953 503.346039755335L1632.8721031794953 438.7598919390398Q1632.8721031794953 427.56056775904665 1625.3974411136624 426.11631102090274L1625.3974411136624 426.11631102090274L1625.3974411136624 422.11293269411783L1643.8433868218867 411.7750949895088Q1647.8467651486712 413.3967165902318 1651.3180488877192 417.1213787043924Q1654.7893326267667 420.8713786560643 1654.7893326267667 424.16529753253286ZM1664.0629811559015 426.7497569586851L1664.0629811559015 426.7497569586851L1664.0629811559015 422.74637863190026L1684.1052106273369 411.7750949895088Q1684.8146700776533 411.9524598520879 1685.5748052029921 412.18050038968954Q1686.334940328331 412.4085409272912 1687.2217646412269 412.76327065244936L1687.2217646412269 412.76327065244936Q1688.9954132670173 413.3967165902318 1691.9346024183278 416.3359057415422Q1694.873791569638 419.2750948928526 1694.873791569638 422.9237434944793L1694.873791569638 422.9237434944793Q1695.5072375074205 422.64502728185505 1703.5139941609905 417.1213787043924L1703.5139941609905 417.1213787043924Q1711.2673724394472 411.7750949895088 1713.4971021404413 411.7750949895088L1713.4971021404413 411.7750949895088Q1717.424466954692 411.7750949895088 1721.1237912313418 415.4237435911355Q1724.8231155079907 419.0977300302735 1727.1795343965414 424.1146218575103Q1729.535953285092 429.1568515222583 1729.535953285092 433.4389460616675L1729.535953285092 433.4389460616675L1729.535953285092 442.4338783781778L1710.7352778517097 452.92374310785465L1707.6187238378207 450.44063503174755Q1707.6187238378207 435.21259468745825 1704.7808860365553 432.8815136364189L1704.7808860365553 432.8815136364189Q1701.3856158100411 430.5757704228909 1694.873791569638 430.5757704228909L1694.873791569638 430.5757704228909L1694.873791569638 488.75144534882816Q1694.873791569638 499.7987425037535 1702.3737914729818 501.29367491692L1702.3737914729818 501.29367491692L1702.3737914729818 505.3223910812162L1683.9278457647579 515.7362422983591Q1679.9244674379734 514.1399585351475 1676.4531836989254 510.3899585834755Q1672.9565621223664 506.63995863180355 1672.9565621223664 503.346039755335L1672.9565621223664 503.346039755335L1672.9565621223664 442.78860810333595Q1672.9565621223664 434.7565136122549 1670.169399996124 430.75313528547Q1667.35690003237 426.7497569586851 1664.0629811559015 426.7497569586851ZM1795.1862902768617 435.8207027877294L1795.1862902768617 435.8207027877294L1795.1862902768617 487.5098913107746Q1795.1862902768617 494.1737425762456 1797.3653443028334 496.8595533524431Q1799.5443983288046 499.5200262911292 1804.079871243327 500.58421546660367L1804.079871243327 500.58421546660367L1804.079871243327 504.6129316308999L1784.2150066344702 515.7362422983591Q1780.2116283076853 514.1399585351475 1776.7403445686377 510.3899585834755Q1773.2690608295902 506.63995863180355 1773.2690608295902 503.52340461791414L1773.2690608295902 503.52340461791414L1750.4650070694229 515.7362422983591Q1750.1862908567987 515.55887743578 1749.8062232941293 515.3308368981784Q1749.4008178939484 515.1027963605767 1748.8687233062115 514.7480666354186L1748.8687233062115 514.7480666354186Q1747.7031827806918 514.1399585351475 1745.068047679517 511.98624234668716Q1742.4582504158534 509.8578639957383 1740.4058855774383 507.5521207822103L1740.4058855774383 507.5521207822103Q1734.9582505125095 501.57239112954426 1734.9582505125095 493.81901285108745L1734.9582505125095 493.81901285108745L1734.9582505125095 463.8950267502461Q1734.9582505125095 461.9440132618762 1739.4683855895205 459.1821889731449Q1743.9531828290196 456.4203646844136 1750.566358419468 453.6585403956822Q1757.1541961724051 450.89671610695086 1763.3873042001846 448.92036478106974L1763.3873042001846 448.92036478106974L1773.0916959670108 445.9051621172254Q1773.0916959670108 438.96259463913015 1770.785952753483 434.9085406373227Q1768.4548717024436 430.8544866355152 1762.7031825873792 429.0555001722131Q1756.9768313098261 427.2818515464224 1746.4616287426384 427.2818515464224L1746.4616287426384 427.2818515464224L1746.4616287426384 421.75820296895967Q1774.5106148676437 411.7750949895088 1778.1592634692702 411.7750949895088L1778.1592634692702 411.7750949895088Q1782.2639931461003 411.7750949895088 1786.1406822853287 415.4744192661581Q1790.017371424557 419.1737435428074 1792.6018308507096 424.6973921202701Q1795.1862902768617 430.2210406977328 1795.1862902768617 435.8207027877294ZM1756.875479959781 475.3730671428635L1756.875479959781 487.3325264481955Q1756.875479959781 491.94401287525153 1759.7386555985577 494.9845533766071L1759.7386555985577 494.9845533766071Q1762.576493399823 497.9997560404514 1766.0477771388705 497.9744182029401Q1769.519060877918 497.9237425279175 1773.2690608295902 495.33928310176526L1773.2690608295902 495.33928310176526L1773.2690608295902 454.0892836333743Q1768.7335879150678 455.68556739658595 1766.4531825390513 456.800432247083Q1764.1727771630344 457.91529709758004 1761.5883177368823 460.2463781486193L1761.5883177368823 460.2463781486193Q1756.875479959781 464.70583755060755 1756.875479959781 475.3730671428635L1756.875479959781 475.3730671428635Z " fill="#336699" transform="matrix(0.4850117420378288,0,0,0.4850117420378288,0,83.38666908003668)"/></g></svg>